# xmcd
# 
# Track frame offsets:
#     150
#     46392
#     55750
#     75590
#     92577
#     103290
#     116525
#     127867
#     141760
# 
# Disc length: 2238
# 
# Revision: 1
# Processed by: cddbd v1.5.2PL0 Copyright (c) Steve Scherf et al.
# Submitted via: fre:ac v1.0.31
# 
DISCID=6f08bc09
DTITLE=B. B. King - Lucille
DYEAR=1968
DGENRE=Blues
TTITLE0=Lucille
TTITLE1=You Move Me So
TTITLE2=Country Girl
TTITLE3=No Money, No Luck Blues
TTITLE4=I Need Your Love
TTITLE5=Rainin' All The Time
TTITLE6=I'm With You
TTITLE7=Stop Putting The Hurt On Me
TTITLE8=Watch Yourself
EXTD=
EXTT0=
EXTT1=
EXTT2=
EXTT3=
EXTT4=
EXTT5=
EXTT6=
EXTT7=
EXTT8=
PLAYORDER=
